<svg width="40" height="40" viewBox="0 0 40 40" fill="none" xmlns="http://www.w3.org/2000/svg">
<path d="M14.6 18.95C14.3 19.25 14.15 19.6 14.15 20C14.15 20.4 14.3 20.75 14.6 21.05L21.15 27.6C21.4167 27.8667 21.7583 28 22.175 28C22.5917 28 22.95 27.85 23.25 27.55C23.5167 27.25 23.65 26.8917 23.65 26.475C23.65 26.0583 23.5167 25.7167 23.25 25.45L17.8 20L23.3 14.5C23.5667 14.2333 23.7 13.8917 23.7 13.475C23.7 13.0583 23.55 12.7 23.25 12.4C22.9833 12.1333 22.6333 12 22.2 12C21.7667 12 21.4167 12.1333 21.15 12.4L14.6 18.95ZM-8.74228e-07 20C-7.50379e-07 17.1667 0.508334 14.5333 1.525 12.1C2.54167 9.66667 3.95 7.55 5.75 5.75C7.55 3.95 9.66667 2.54167 12.1 1.525C14.5333 0.508332 17.1667 -9.98077e-07 20 -8.74228e-07C22.8 -7.51836e-07 25.4167 0.508333 27.85 1.525C30.2833 2.54167 32.4 3.95 34.2 5.75C36 7.55 37.4167 9.66667 38.45 12.1C39.4833 14.5333 40 17.1667 40 20C40 22.8 39.4833 25.4167 38.45 27.85C37.4167 30.2833 36 32.4 34.2 34.2C32.4 36 30.2833 37.4167 27.85 38.45C25.4167 39.4833 22.8 40 20 40C17.1667 40 14.5333 39.4833 12.1 38.45C9.66667 37.4167 7.55 36 5.75 34.2C3.95 32.4 2.54167 30.2833 1.525 27.85C0.508334 25.4167 -9.9662e-07 22.8 -8.74228e-07 20Z" fill="rgba(0,0,0,0.5)"/>
</svg>
