<svg width="36" height="44" viewBox="0 0 36 44" fill="none" xmlns="http://www.w3.org/2000/svg">
<path d="M7 44V35.5H4.5C3.26667 35.5 2.20833 35.0583 1.325 34.175C0.44167 33.2917 0 32.2167 0 30.95C0 29.7167 0.44167 28.6667 1.325 27.8C2.20833 26.9333 3.26667 26.5 4.5 26.5H7V23.5H0V14.5H7V11.5H4.5C3.26667 11.5 2.20833 11.0583 1.325 10.175C0.44167 9.2917 0 8.2167 0 6.95C0 5.71667 0.44167 4.66667 1.325 3.8C2.20833 2.93333 3.26667 2.5 4.5 2.5H7V0H9V2.5H11.5C12.7667 2.5 13.8333 2.93333 14.7 3.8C15.5667 4.66667 16 5.73333 16 7C16 8.2333 15.5667 9.2917 14.7 10.175C13.8333 11.0583 12.7667 11.5 11.5 11.5H9V14.5H16V23.5H9V26.5H11.5C12.7667 26.5 13.8333 26.9333 14.7 27.8C15.5667 28.6667 16 29.7333 16 31C16 32.2333 15.5667 33.2917 14.7 34.175C13.8333 35.0583 12.7667 35.5 11.5 35.5H9V44H7ZM27 44V35.5H24.5C23.2667 35.5 22.2083 35.0583 21.325 34.175C20.4417 33.2917 20 32.2167 20 30.95C20 29.7167 20.4417 28.6667 21.325 27.8C22.2083 26.9333 23.2667 26.5 24.5 26.5H27V23.5H20V14.5H27V11.5H24.5C23.2667 11.5 22.2083 11.0583 21.325 10.175C20.4417 9.2917 20 8.2167 20 6.95C20 5.71667 20.4417 4.66667 21.325 3.8C22.2083 2.93333 23.2667 2.5 24.5 2.5H27V0H29V2.5H31.5C32.7667 2.5 33.8333 2.93333 34.7 3.8C35.5667 4.66667 36 5.73333 36 7C36 8.2333 35.5667 9.2917 34.7 10.175C33.8333 11.0583 32.7667 11.5 31.5 11.5H29V14.5H36V23.5H29V26.5H31.5C32.7667 26.5 33.8333 26.9333 34.7 27.8C35.5667 28.6667 36 29.7333 36 31C36 32.2333 35.5667 33.2917 34.7 34.175C33.8333 35.0583 32.7667 35.5 31.5 35.5H29V44H27ZM4.5 8.5H11.5C11.9333 8.5 12.2917 8.35 12.575 8.05C12.8583 7.75 13 7.4 13 7C13 6.56667 12.8583 6.20833 12.575 5.925C12.2917 5.64167 11.9333 5.5 11.5 5.5H4.5C4.1 5.5 3.75 5.64167 3.45 5.925C3.15 6.20833 3 6.55 3 6.95C3 7.38333 3.15 7.75 3.45 8.05C3.75 8.35 4.1 8.5 4.5 8.5ZM24.5 8.5H31.5C31.9333 8.5 32.2917 8.35 32.575 8.05C32.8583 7.75 33 7.4 33 7C33 6.56667 32.8583 6.20833 32.575 5.925C32.2917 5.64167 31.9333 5.5 31.5 5.5H24.5C24.1 5.5 23.75 5.64167 23.45 5.925C23.15 6.20833 23 6.55 23 6.95C23 7.38333 23.15 7.75 23.45 8.05C23.75 8.35 24.1 8.5 24.5 8.5ZM3 20.5H13V17.5H3V20.5ZM23 20.5H33V17.5H23V20.5ZM4.5 32.5H11.5C11.9333 32.5 12.2917 32.35 12.575 32.05C12.8583 31.75 13 31.4 13 31C13 30.5667 12.8583 30.2083 12.575 29.925C12.2917 29.6417 11.9333 29.5 11.5 29.5H4.5C4.1 29.5 3.75 29.6417 3.45 29.925C3.15 30.2083 3 30.55 3 30.95C3 31.3833 3.15 31.75 3.45 32.05C3.75 32.35 4.1 32.5 4.5 32.5ZM24.5 32.5H31.5C31.9333 32.5 32.2917 32.35 32.575 32.05C32.8583 31.75 33 31.4 33 31C33 30.5667 32.8583 30.2083 32.575 29.925C32.2917 29.6417 31.9333 29.5 31.5 29.5H24.5C24.1 29.5 23.75 29.6417 23.45 29.925C23.15 30.2083 23 30.55 23 30.95C23 31.3833 23.15 31.75 23.45 32.05C23.75 32.35 24.1 32.5 24.5 32.5ZM3 8.5V5.5V8.5ZM23 8.5V5.5V8.5ZM3 20.5V17.5V20.5ZM23 20.5V17.5V20.5ZM3 32.5V29.5V32.5ZM23 32.5V29.5V32.5Z" fill="#B09231"/>
</svg>
