<svg width="36" height="36" viewBox="0 0 36 36" fill="none" xmlns="http://www.w3.org/2000/svg">
<path d="M18.05 17.55C19.7167 17.55 21.1083 16.9917 22.225 15.875C23.3417 14.7583 23.9 13.35 23.9 11.65C23.9 9.98333 23.3417 8.58333 22.225 7.45C21.1083 6.31667 19.7167 5.75 18.05 5.75C16.35 5.75 14.9333 6.31667 13.8 7.45C12.6667 8.58333 12.1 9.98333 12.1 11.65C12.1 13.35 12.6667 14.7583 13.8 15.875C14.9333 16.9917 16.35 17.55 18.05 17.55ZM14.85 12.65C14.5833 12.65 14.35 12.55 14.15 12.35C13.95 12.15 13.85 11.9167 13.85 11.65C13.85 11.3833 13.95 11.15 14.15 10.95C14.35 10.75 14.5833 10.65 14.85 10.65C15.1167 10.65 15.35 10.75 15.55 10.95C15.75 11.15 15.85 11.3833 15.85 11.65C15.85 11.9167 15.75 12.15 15.55 12.35C15.35 12.55 15.1167 12.65 14.85 12.65ZM18 12.65C17.7333 12.65 17.5 12.55 17.3 12.35C17.1 12.15 17 11.9167 17 11.65C17 11.3833 17.1 11.15 17.3 10.95C17.5 10.75 17.7333 10.65 18 10.65C18.2667 10.65 18.5 10.75 18.7 10.95C18.9 11.15 19 11.3833 19 11.65C19 11.9167 18.9 12.15 18.7 12.35C18.5 12.55 18.2667 12.65 18 12.65ZM21.15 12.65C20.8833 12.65 20.65 12.55 20.45 12.35C20.25 12.15 20.15 11.9167 20.15 11.65C20.15 11.3833 20.25 11.15 20.45 10.95C20.65 10.75 20.8833 10.65 21.15 10.65C21.4167 10.65 21.65 10.75 21.85 10.95C22.05 11.15 22.15 11.3833 22.15 11.65C22.15 11.9167 22.05 12.15 21.85 12.35C21.65 12.55 21.4167 12.65 21.15 12.65ZM3 36C2.2 36 1.5 35.7 0.9 35.1C0.3 34.5 0 33.8 0 33V3C0 2.2 0.3 1.5 0.9 0.9C1.5 0.3 2.2 0 3 0H33C33.8 0 34.5 0.3 35.1 0.9C35.7 1.5 36 2.2 36 3V33C36 33.8 35.7 34.5 35.1 35.1C34.5 35.7 33.8 36 33 36H3ZM3 33H33V3H3V33ZM3 3V33V3Z" fill="#B09231"/>
</svg>
