<svg width="28" height="36" viewBox="0 0 28 36" fill="none" xmlns="http://www.w3.org/2000/svg">
<path d="M14 36C10.1 36 6.7917 34.6417 4.075 31.925C1.3583 29.2083 0 25.9 0 22C0 19.4333 0.425 16.85 1.275 14.25C2.125 11.65 3.225 9.2917 4.575 7.175C5.925 5.0583 7.4333 3.33333 9.1 2C10.7667 0.66667 12.4 0 14 0C15.6333 0 17.275 0.66667 18.925 2C20.575 3.33333 22.075 5.0583 23.425 7.175C24.775 9.2917 25.875 11.65 26.725 14.25C27.575 16.85 28 19.4333 28 22C28 25.9 26.6417 29.2083 23.925 31.925C21.2083 34.6417 17.9 36 14 36ZM14 34C17.3333 34 20.1667 32.8333 22.5 30.5C24.8333 28.1667 26 25.3333 26 22C26 19.8 25.625 17.525 24.875 15.175C24.125 12.825 23.1583 10.675 21.975 8.725C20.7917 6.775 19.4917 5.1667 18.075 3.9C16.6583 2.63333 15.3 2 14 2C12.7 2 11.3417 2.625 9.925 3.875C8.5083 5.125 7.2083 6.725 6.025 8.675C4.8417 10.625 3.875 12.7833 3.125 15.15C2.375 17.5167 2 19.8 2 22C2 25.3333 3.1667 28.1667 5.5 30.5C7.8333 32.8333 10.6667 34 14 34ZM15.25 29.95C15.55 29.95 15.7917 29.85 15.975 29.65C16.1583 29.45 16.25 29.2167 16.25 28.95C16.25 28.65 16.1583 28.4083 15.975 28.225C15.7917 28.0417 15.55 27.95 15.25 27.95C13.3167 27.95 11.6667 27.2667 10.3 25.9C8.9333 24.5333 8.25 22.8833 8.25 20.95C8.25 20.65 8.1583 20.4083 7.975 20.225C7.7917 20.0417 7.55 19.95 7.25 19.95C6.9833 19.95 6.75 20.0417 6.55 20.225C6.35 20.4083 6.25 20.65 6.25 20.95C6.25 23.45 7.125 25.575 8.875 27.325C10.625 29.075 12.75 29.95 15.25 29.95Z" fill="#B09231"/>
</svg>
