<svg width="48" height="48" viewBox="0 0 48 48" fill="none" xmlns="http://www.w3.org/2000/svg">
<g style="mix-blend-mode:overlay">
<path d="M6 31.5V28.5H42V31.5H6ZM6 23V20H24H42V23H6Z" fill="#2B2B2B"/>
</g>
<path d="M4 16.1V14.1C4 10.4667 5.75 7.54167 9.25 5.325C12.75 3.10833 17.6667 2 24 2C30.3333 2 35.25 3.10833 38.75 5.325C42.25 7.54167 44 10.4667 44 14.1V16.1H4ZM7.1 13.1H40.9C40.8 10.8 39.1917 8.875 36.075 7.325C32.9583 5.775 28.9333 5 24 5C19.0667 5 15.025 5.775 11.875 7.325C8.725 8.875 7.13333 10.8 7.1 13.1ZM7 45C6.2 45 5.5 44.7 4.9 44.1C4.3 43.5 4 42.8 4 42V35.6H44V42C44 42.8 43.7 43.5 43.1 44.1C42.5 44.7 41.8 45 41 45H7ZM7 42H41V38.6H7V42Z" fill="#2B2B2B"/>
</svg>
