<svg width="36" height="36" viewBox="0 0 36 36" fill="none" xmlns="http://www.w3.org/2000/svg">
<path d="M9 27.7C9.4 27.7 9.75 27.55 10.05 27.25C10.35 26.95 10.5 26.6 10.5 26.2C10.5 25.8 10.35 25.45 10.05 25.15C9.75 24.85 9.4 24.7 9 24.7C8.6 24.7 8.25 24.85 7.95 25.15C7.65 25.45 7.5 25.8 7.5 26.2C7.5 26.6 7.65 26.95 7.95 27.25C8.25 27.55 8.6 27.7 9 27.7ZM9 19.5C9.4 19.5 9.75 19.35 10.05 19.05C10.35 18.75 10.5 18.4 10.5 18C10.5 17.6 10.35 17.25 10.05 16.95C9.75 16.65 9.4 16.5 9 16.5C8.6 16.5 8.25 16.65 7.95 16.95C7.65 17.25 7.5 17.6 7.5 18C7.5 18.4 7.65 18.75 7.95 19.05C8.25 19.35 8.6 19.5 9 19.5ZM9 11.3C9.4 11.3 9.75 11.15 10.05 10.85C10.35 10.55 10.5 10.2 10.5 9.8C10.5 9.4 10.35 9.05 10.05 8.75C9.75 8.45 9.4 8.3 9 8.3C8.6 8.3 8.25 8.45 7.95 8.75C7.65 9.05 7.5 9.4 7.5 9.8C7.5 10.2 7.65 10.55 7.95 10.85C8.25 11.15 8.6 11.3 9 11.3ZM15.6 27.7H27.8V24.7H15.6V27.7ZM15.6 19.5H27.8V16.5H15.6V19.5ZM15.6 11.3H27.8V8.3H15.6V11.3ZM3 36C2.2 36 1.5 35.7 0.9 35.1C0.3 34.5 0 33.8 0 33V3C0 2.2 0.3 1.5 0.9 0.9C1.5 0.3 2.2 0 3 0H33C33.8 0 34.5 0.3 35.1 0.9C35.7 1.5 36 2.2 36 3V33C36 33.8 35.7 34.5 35.1 35.1C34.5 35.7 33.8 36 33 36H3ZM3 33H33V3H3V33ZM3 3V33V3Z" fill="#B09231"/>
</svg>
