<svg width="36" height="42" viewBox="0 0 36 42" fill="none" xmlns="http://www.w3.org/2000/svg">
<path d="M18 42L12 36H3C2.2 36 1.5 35.6917 0.9 35.075C0.3 34.4583 0 33.7667 0 33V3C0 2.2 0.3 1.5 0.9 0.9C1.5 0.3 2.2 0 3 0H33C33.7667 0 34.4583 0.3 35.075 0.9C35.6917 1.5 36 2.2 36 3V33C36 33.7667 35.6917 34.4583 35.075 35.075C34.4583 35.6917 33.7667 36 33 36H24L18 42ZM3 33H13.2L18 37.8L22.8 33H33V3H3V33ZM3 3V33V3ZM20.85 20.95L27.25 18.15L20.85 15.35L18.05 8.95L15.2 15.35L8.85 18.15L15.2 20.95L18.05 27.35L20.85 20.95Z" fill="#78910B"/>
</svg>
