<svg width="44" height="24" viewBox="0 0 44 24" fill="none" xmlns="http://www.w3.org/2000/svg">
<path d="M12 24C8.66667 24 5.83333 22.8333 3.5 20.5C1.16667 18.1667 0 15.3333 0 12C0 8.66667 1.16667 5.83333 3.5 3.5C5.83333 1.16667 8.66667 0 12 0H32C35.3333 0 38.1667 1.16667 40.5 3.5C42.8333 5.83333 44 8.66667 44 12C44 15.3333 42.8333 18.1667 40.5 20.5C38.1667 22.8333 35.3333 24 32 24H12ZM12 21H32C34.5 21 36.625 20.125 38.375 18.375C40.125 16.625 41 14.5 41 12C41 9.5 40.125 7.375 38.375 5.625C36.625 3.875 34.5 3 32 3H12C9.5 3 7.375 3.875 5.625 5.625C3.875 7.375 3 9.5 3 12C3 14.5 3.875 16.625 5.625 18.375C7.375 20.125 9.5 21 12 21ZM32.05 17.05C33.45 17.05 34.6417 16.5583 35.625 15.575C36.6083 14.5917 37.1 13.4 37.1 12C37.1 10.6 36.6083 9.40833 35.625 8.425C34.6417 7.44167 33.45 6.95 32.05 6.95C30.65 6.95 29.4583 7.44167 28.475 8.425C27.4917 9.40833 27 10.6 27 12C27 13.4 27.4917 14.5917 28.475 15.575C29.4583 16.5583 30.65 17.05 32.05 17.05V17.05Z" fill="#B09231"/>
</svg>
